<svg width="32" height="32" viewBox="0 0 32 32" fill="none" xmlns="http://www.w3.org/2000/svg">
  <rect width="32" height="32" rx="6" fill="#3B82F6"/>
  <path d="M8 10h16c1.1 0 2 .9 2 2v8c0 1.1-.9 2-2 2H8c-1.1 0-2-.9-2-2v-8c0-1.1.9-2 2-2z" fill="#ffffff" opacity="0.2"/>
  <path d="M10 12h12v2H10v-2zm0 4h8v2h-8v-2zm0 4h10v2H10v-2z" fill="#ffffff"/>
  <circle cx="24" cy="8" r="3" fill="#10B981"/>
  <path d="M23 8l1 1 2-2" stroke="#ffffff" stroke-width="1.5" stroke-linecap="round" stroke-linejoin="round" fill="none"/>
</svg>